<svg width="114" height="114" viewBox="0 0 114 114" fill="none" xmlns="http://www.w3.org/2000/svg">
<path d="M67.8521 0H67.8249C60.0138 0 54.8972 4.30111 52.5021 9.28277C40.8808 8.33 29.1234 12.25 19.2439 20.5255C8.0852 29.8628 0.981758 43.3378 0.192486 56.6494C-1.11389 71.8394 4.27493 86.8116 14.9709 97.7277C24.7688 107.718 38.3225 113.462 52.2028 113.462C53.4003 113.462 54.5978 113.408 55.6048 113.353C83.1204 111.856 105.465 87.8189 104.404 60.8416C104.404 60.6239 104.349 60.4333 104.322 60.2155C108.976 57.7928 112.351 53.1922 112.922 47.6661C112.977 47.2033 113.031 46.3594 113.031 45.9239C113.194 21.3967 92.5917 0.353889 67.8521 0Z" fill="#C6A8E1"/>
<path d="M52.2026 101.484C41.4794 101.484 31.1372 97.1561 23.5167 89.3433C15.2157 80.8772 11.0516 69.2534 12.1131 57.4934C12.6574 47.4211 18.1823 36.995 26.9187 29.6995C34.7298 23.1661 43.9016 20.1717 52.7469 21.2606C54.6793 21.5056 56.1762 23.1117 56.2578 25.0717C56.3395 27.0589 56.3123 34.7628 56.3123 42.9295C56.3123 47.8295 56.3123 53.5189 56.3123 57.1667C58.4351 57.1667 61.2384 57.1122 63.8511 57.085C75.9352 56.9217 85.4609 56.84 89.2439 57.5478C91.0674 57.9017 92.4282 59.4534 92.4827 61.3045C93.2719 81.5306 75.7447 100.259 54.9787 101.376C54.0533 101.43 53.1552 101.484 52.2298 101.484H52.2026ZM48.3379 29.0461C42.7586 29.2639 37.0704 31.605 32.0354 35.8245C25.0952 41.65 20.4957 50.1706 20.0602 58.0922C19.1893 67.6745 22.5369 76.9845 29.2049 83.79C35.8456 90.5683 45.0447 94.08 54.4615 93.4539C69.9204 92.61 83.0931 79.7611 84.4267 65.1156C79.2556 64.8706 70.3286 65.0067 63.96 65.0883C57.0743 65.1972 53.4001 65.2245 51.9577 65.0339C51.5766 64.9795 51.1956 64.8706 50.8418 64.7345C49.481 64.1356 48.5012 62.8017 48.4195 61.3317C48.3379 59.9706 48.3379 53.4645 48.3651 42.9295C48.3651 37.7845 48.3651 32.5306 48.3651 29.0461H48.3379Z" fill="#2A343D"/>
<path d="M81.5414 50.2794C76.0165 50.2794 70.5189 50.225 66.7086 50.0889C64.5585 50.0072 62.8711 48.265 62.8711 46.1144C62.8711 41.8133 62.8711 32.7756 62.8711 27.685C62.8711 26.0517 62.8711 23.7378 62.8711 21.56C62.8711 19.3822 62.8711 17.3406 62.8711 16.2245C62.8711 16.0067 62.8711 15.8161 62.9255 15.5983C63.0072 14.9722 63.7148 11.9233 67.8517 11.9233C86.0049 12.1956 101.219 27.7122 101.11 45.815C101.11 45.9511 101.11 46.06 101.11 46.1961V46.4955C100.865 48.4828 99.232 50.0344 97.218 50.0889C93.1628 50.1978 87.3385 50.2522 81.5959 50.2522L81.5414 50.2794ZM70.8454 42.1944C77.3229 42.3033 86.2498 42.3033 92.8634 42.1944C91.2304 31.1694 81.9225 21.805 70.8454 20.1717C70.8454 20.6344 70.8454 21.0972 70.8454 21.5872C70.8454 23.7378 70.8454 25.9972 70.8454 27.6578C70.8454 31.5233 70.8454 37.5939 70.8454 42.1944Z" fill="#2A343D"/>
</svg>
